<svg xmlns="http://www.w3.org/2000/svg" width="24" height="24" fill="none"><path fill="#969592" d="M7.03.084c-1.277.06-2.149.264-2.91.563a5.9 5.9 0 0 0-2.124 1.388 5.9 5.9 0 0 0-1.38 2.127C.321 4.926.12 5.8.064 7.076s-.069 1.688-.063 4.947.021 3.667.083 4.947c.061 1.277.264 2.149.563 2.911.308.789.72 1.457 1.388 2.123a5.9 5.9 0 0 0 2.129 1.38c.763.295 1.636.496 2.913.552 1.278.056 1.689.069 4.947.063s3.668-.021 4.947-.082c1.28-.06 2.147-.265 2.91-.563a5.9 5.9 0 0 0 2.123-1.388 5.9 5.9 0 0 0 1.38-2.129c.295-.763.496-1.636.552-2.912.055-1.28.069-1.69.063-4.948s-.021-3.667-.082-4.946c-.06-1.28-.264-2.15-.564-2.912a5.9 5.9 0 0 0-1.387-2.123 5.86 5.86 0 0 0-2.128-1.38C19.074.322 18.202.12 16.924.066 15.647.009 15.236-.005 11.977 0S8.31.021 7.03.084m.14 21.693c-1.17-.05-1.805-.245-2.228-.408a3.7 3.7 0 0 1-1.382-.895 3.7 3.7 0 0 1-.9-1.378c-.165-.423-.363-1.058-.417-2.228-.06-1.264-.072-1.644-.08-4.848-.006-3.204.006-3.583.061-4.848.05-1.169.246-1.805.408-2.228.216-.561.476-.96.895-1.382a3.7 3.7 0 0 1 1.379-.9c.423-.165 1.057-.361 2.227-.417 1.265-.06 1.644-.072 4.848-.08 3.203-.006 3.583.006 4.85.062 1.168.05 1.804.244 2.227.408.56.216.96.475 1.382.895s.681.817.9 1.378c.166.422.362 1.056.417 2.227.06 1.265.074 1.645.08 4.848s-.006 3.583-.061 4.848c-.051 1.17-.245 1.805-.408 2.23-.216.56-.477.96-.896 1.38a3.7 3.7 0 0 1-1.378.9c-.422.165-1.058.362-2.226.418-1.266.06-1.645.072-4.85.079s-3.582-.006-4.848-.06m9.783-16.19a1.44 1.44 0 1 0 2.881-.006 1.44 1.44 0 0 0-2.881.005M5.838 12.011a6.161 6.161 0 1 0 12.324-.024 6.162 6.162 0 0 0-12.324.024M8 12.008a4 4 0 1 1 8-.016 4 4 0 0 1-8 .016"/></svg>